<?xml version="1.0" encoding="UTF-8" standalone="no"?>
<!DOCTYPE svg PUBLIC "-//W3C//DTD SVG 1.1//EN"
 "http://www.w3.org/Graphics/SVG/1.1/DTD/svg11.dtd">
<!-- Generated by graphviz version 2.43.0 (0)
 -->
<!-- Title: %3 Pages: 1 -->
<svg width="2734pt" height="476pt"
 viewBox="0.00 0.00 2734.30 476.00" xmlns="http://www.w3.org/2000/svg" xmlns:xlink="http://www.w3.org/1999/xlink">
<g id="graph0" class="graph" transform="scale(1 1) rotate(0) translate(4 472)">
<title>%3</title>
<polygon fill="white" stroke="transparent" points="-4,4 -4,-472 2730.3,-472 2730.3,4 -4,4"/>
<!-- [root] aws_default_vpc.default (expand) -->
<g id="node1" class="node">
<title>[root] aws_default_vpc.default (expand)</title>
<polygon fill="none" stroke="black" points="866.57,-108 678.57,-108 678.57,-72 866.57,-72 866.57,-108"/>
<text text-anchor="middle" x="772.57" y="-86.3" font-family="Times,serif" font-size="14.00">aws_default_vpc.default</text>
</g>
<!-- [root] provider[&quot;registry.terraform.io/hashicorp/aws&quot;] -->
<g id="node9" class="node">
<title>[root] provider[&quot;registry.terraform.io/hashicorp/aws&quot;]</title>
<polygon fill="none" stroke="black" points="1010.57,-36 685.31,-18 1010.57,0 1335.84,-18 1010.57,-36"/>
<text text-anchor="middle" x="1010.57" y="-14.3" font-family="Times,serif" font-size="14.00">provider[&quot;registry.terraform.io/hashicorp/aws&quot;]</text>
</g>
<!-- [root] aws_default_vpc.default (expand)&#45;&gt;[root] provider[&quot;registry.terraform.io/hashicorp/aws&quot;] -->
<g id="edge1" class="edge">
<title>[root] aws_default_vpc.default (expand)&#45;&gt;[root] provider[&quot;registry.terraform.io/hashicorp/aws&quot;]</title>
<path fill="none" stroke="black" d="M830.49,-71.97C867.37,-61.12 914.99,-47.11 952,-36.23"/>
<polygon fill="black" stroke="black" points="953.05,-39.57 961.65,-33.39 951.07,-32.85 953.05,-39.57"/>
</g>
<!-- [root] aws_elb.elb (expand) -->
<g id="node2" class="node">
<title>[root] aws_elb.elb (expand)</title>
<polygon fill="none" stroke="black" points="1284.07,-324 1185.07,-324 1185.07,-288 1284.07,-288 1284.07,-324"/>
<text text-anchor="middle" x="1234.57" y="-302.3" font-family="Times,serif" font-size="14.00">aws_elb.elb</text>
</g>
<!-- [root] aws_instance.http_servers (expand) -->
<g id="node3" class="node">
<title>[root] aws_instance.http_servers (expand)</title>
<polygon fill="none" stroke="black" points="998.57,-252 792.57,-252 792.57,-216 998.57,-216 998.57,-252"/>
<text text-anchor="middle" x="895.57" y="-230.3" font-family="Times,serif" font-size="14.00">aws_instance.http_servers</text>
</g>
<!-- [root] aws_elb.elb (expand)&#45;&gt;[root] aws_instance.http_servers (expand) -->
<g id="edge2" class="edge">
<title>[root] aws_elb.elb (expand)&#45;&gt;[root] aws_instance.http_servers (expand)</title>
<path fill="none" stroke="black" d="M1184.99,-290.12C1182.15,-289.37 1179.33,-288.66 1176.57,-288 1121.82,-274.85 1060.41,-262.94 1009,-253.76"/>
<polygon fill="black" stroke="black" points="1009.32,-250.27 998.86,-251.97 1008.09,-257.16 1009.32,-250.27"/>
</g>
<!-- [root] aws_security_group.elb_sg (expand) -->
<g id="node5" class="node">
<title>[root] aws_security_group.elb_sg (expand)</title>
<polygon fill="none" stroke="black" points="664.07,-180 457.07,-180 457.07,-144 664.07,-144 664.07,-180"/>
<text text-anchor="middle" x="560.57" y="-158.3" font-family="Times,serif" font-size="14.00">aws_security_group.elb_sg</text>
</g>
<!-- [root] aws_instance.http_servers (expand)&#45;&gt;[root] aws_security_group.elb_sg (expand) -->
<g id="edge3" class="edge">
<title>[root] aws_instance.http_servers (expand)&#45;&gt;[root] aws_security_group.elb_sg (expand)</title>
<path fill="none" stroke="black" d="M814.05,-215.97C765.12,-205.74 702.75,-192.71 652.13,-182.13"/>
<polygon fill="black" stroke="black" points="652.67,-178.67 642.17,-180.05 651.24,-185.52 652.67,-178.67"/>
</g>
<!-- [root] data.aws_ami.aws_linux_2_latest (expand) -->
<g id="node6" class="node">
<title>[root] data.aws_ami.aws_linux_2_latest (expand)</title>
<polygon fill="none" stroke="black" points="1136.07,-108 885.07,-108 885.07,-72 1136.07,-72 1136.07,-108"/>
<text text-anchor="middle" x="1010.57" y="-86.3" font-family="Times,serif" font-size="14.00">data.aws_ami.aws_linux_2_latest</text>
</g>
<!-- [root] aws_instance.http_servers (expand)&#45;&gt;[root] data.aws_ami.aws_linux_2_latest (expand) -->
<g id="edge4" class="edge">
<title>[root] aws_instance.http_servers (expand)&#45;&gt;[root] data.aws_ami.aws_linux_2_latest (expand)</title>
<path fill="none" stroke="black" d="M915.83,-215.87C926.98,-205.95 940.72,-192.91 951.57,-180 968.31,-160.09 984.42,-135.28 995.57,-116.91"/>
<polygon fill="black" stroke="black" points="998.64,-118.58 1000.77,-108.21 992.64,-114.99 998.64,-118.58"/>
</g>
<!-- [root] data.aws_subnets.default_subnets (expand) -->
<g id="node7" class="node">
<title>[root] data.aws_subnets.default_subnets (expand)</title>
<polygon fill="none" stroke="black" points="943.07,-180 682.07,-180 682.07,-144 943.07,-144 943.07,-180"/>
<text text-anchor="middle" x="812.57" y="-158.3" font-family="Times,serif" font-size="14.00">data.aws_subnets.default_subnets</text>
</g>
<!-- [root] aws_instance.http_servers (expand)&#45;&gt;[root] data.aws_subnets.default_subnets (expand) -->
<g id="edge5" class="edge">
<title>[root] aws_instance.http_servers (expand)&#45;&gt;[root] data.aws_subnets.default_subnets (expand)</title>
<path fill="none" stroke="black" d="M875.06,-215.7C864.7,-206.97 851.99,-196.24 840.73,-186.75"/>
<polygon fill="black" stroke="black" points="842.75,-183.88 832.85,-180.1 838.24,-189.23 842.75,-183.88"/>
</g>
<!-- [root] var.aws_key_pair -->
<g id="node13" class="node">
<title>[root] var.aws_key_pair</title>
<polygon fill="none" stroke="black" points="1131.07,-180 1000.07,-180 1000.07,-144 1137.07,-144 1137.07,-174 1131.07,-180"/>
<polyline fill="none" stroke="black" points="1131.07,-180 1131.07,-174 "/>
<polyline fill="none" stroke="black" points="1137.07,-174 1131.07,-174 "/>
<text text-anchor="middle" x="1068.57" y="-158.3" font-family="Times,serif" font-size="14.00">var.aws_key_pair</text>
</g>
<!-- [root] aws_instance.http_servers (expand)&#45;&gt;[root] var.aws_key_pair -->
<g id="edge6" class="edge">
<title>[root] aws_instance.http_servers (expand)&#45;&gt;[root] var.aws_key_pair</title>
<path fill="none" stroke="black" d="M937.89,-215.88C961.75,-206.22 991.75,-194.09 1016.98,-183.88"/>
<polygon fill="black" stroke="black" points="1018.43,-187.06 1026.39,-180.07 1015.81,-180.57 1018.43,-187.06"/>
</g>
<!-- [root] aws_key_pair.tf&#45;key&#45;pair (expand) -->
<g id="node4" class="node">
<title>[root] aws_key_pair.tf&#45;key&#45;pair (expand)</title>
<polygon fill="none" stroke="black" points="1489.07,-324 1302.07,-324 1302.07,-288 1489.07,-288 1489.07,-324"/>
<text text-anchor="middle" x="1395.57" y="-302.3" font-family="Times,serif" font-size="14.00">aws_key_pair.tf&#45;key&#45;pair</text>
</g>
<!-- [root] aws_key_pair.tf&#45;key&#45;pair (expand)&#45;&gt;[root] provider[&quot;registry.terraform.io/hashicorp/aws&quot;] -->
<g id="edge7" class="edge">
<title>[root] aws_key_pair.tf&#45;key&#45;pair (expand)&#45;&gt;[root] provider[&quot;registry.terraform.io/hashicorp/aws&quot;]</title>
<path fill="none" stroke="black" d="M1381.15,-287.76C1345.16,-245.7 1246.93,-136.52 1144.57,-72 1121.22,-57.28 1093.1,-45.4 1068.66,-36.65"/>
<polygon fill="black" stroke="black" points="1069.74,-33.32 1059.15,-33.33 1067.44,-39.93 1069.74,-33.32"/>
</g>
<!-- [root] tls_private_key.rsa (expand) -->
<g id="node12" class="node">
<title>[root] tls_private_key.rsa (expand)</title>
<polygon fill="none" stroke="black" points="1905.07,-252 1756.07,-252 1756.07,-216 1905.07,-216 1905.07,-252"/>
<text text-anchor="middle" x="1830.57" y="-230.3" font-family="Times,serif" font-size="14.00">tls_private_key.rsa</text>
</g>
<!-- [root] aws_key_pair.tf&#45;key&#45;pair (expand)&#45;&gt;[root] tls_private_key.rsa (expand) -->
<g id="edge8" class="edge">
<title>[root] aws_key_pair.tf&#45;key&#45;pair (expand)&#45;&gt;[root] tls_private_key.rsa (expand)</title>
<path fill="none" stroke="black" d="M1489.16,-289.94C1565.36,-277.68 1672,-260.52 1745.73,-248.65"/>
<polygon fill="black" stroke="black" points="1746.59,-252.06 1755.91,-247.01 1745.48,-245.15 1746.59,-252.06"/>
</g>
<!-- [root] aws_security_group.elb_sg (expand)&#45;&gt;[root] aws_default_vpc.default (expand) -->
<g id="edge9" class="edge">
<title>[root] aws_security_group.elb_sg (expand)&#45;&gt;[root] aws_default_vpc.default (expand)</title>
<path fill="none" stroke="black" d="M612.16,-143.97C642.04,-134.1 679.83,-121.62 711.23,-111.25"/>
<polygon fill="black" stroke="black" points="712.35,-114.57 720.75,-108.11 710.16,-107.92 712.35,-114.57"/>
</g>
<!-- [root] data.aws_ami.aws_linux_2_latest (expand)&#45;&gt;[root] provider[&quot;registry.terraform.io/hashicorp/aws&quot;] -->
<g id="edge10" class="edge">
<title>[root] data.aws_ami.aws_linux_2_latest (expand)&#45;&gt;[root] provider[&quot;registry.terraform.io/hashicorp/aws&quot;]</title>
<path fill="none" stroke="black" d="M1010.57,-71.7C1010.57,-63.98 1010.57,-54.71 1010.57,-46.11"/>
<polygon fill="black" stroke="black" points="1014.07,-46.1 1010.57,-36.1 1007.07,-46.1 1014.07,-46.1"/>
</g>
<!-- [root] data.aws_subnets.default_subnets (expand)&#45;&gt;[root] aws_default_vpc.default (expand) -->
<g id="edge11" class="edge">
<title>[root] data.aws_subnets.default_subnets (expand)&#45;&gt;[root] aws_default_vpc.default (expand)</title>
<path fill="none" stroke="black" d="M802.69,-143.7C798.08,-135.64 792.51,-125.89 787.42,-116.98"/>
<polygon fill="black" stroke="black" points="790.35,-115.05 782.35,-108.1 784.27,-118.52 790.35,-115.05"/>
</g>
<!-- [root] local_file.tf&#45;key (expand) -->
<g id="node8" class="node">
<title>[root] local_file.tf&#45;key (expand)</title>
<polygon fill="none" stroke="black" points="2402.57,-324 2280.57,-324 2280.57,-288 2402.57,-288 2402.57,-324"/>
<text text-anchor="middle" x="2341.57" y="-302.3" font-family="Times,serif" font-size="14.00">local_file.tf&#45;key</text>
</g>
<!-- [root] provider[&quot;registry.terraform.io/hashicorp/local&quot;] -->
<g id="node10" class="node">
<title>[root] provider[&quot;registry.terraform.io/hashicorp/local&quot;]</title>
<polygon fill="none" stroke="black" points="2341.57,-252 2011.62,-234 2341.57,-216 2671.53,-234 2341.57,-252"/>
<text text-anchor="middle" x="2341.57" y="-230.3" font-family="Times,serif" font-size="14.00">provider[&quot;registry.terraform.io/hashicorp/local&quot;]</text>
</g>
<!-- [root] local_file.tf&#45;key (expand)&#45;&gt;[root] provider[&quot;registry.terraform.io/hashicorp/local&quot;] -->
<g id="edge12" class="edge">
<title>[root] local_file.tf&#45;key (expand)&#45;&gt;[root] provider[&quot;registry.terraform.io/hashicorp/local&quot;]</title>
<path fill="none" stroke="black" d="M2341.57,-287.7C2341.57,-279.98 2341.57,-270.71 2341.57,-262.11"/>
<polygon fill="black" stroke="black" points="2345.07,-262.1 2341.57,-252.1 2338.07,-262.1 2345.07,-262.1"/>
</g>
<!-- [root] local_file.tf&#45;key (expand)&#45;&gt;[root] tls_private_key.rsa (expand) -->
<g id="edge13" class="edge">
<title>[root] local_file.tf&#45;key (expand)&#45;&gt;[root] tls_private_key.rsa (expand)</title>
<path fill="none" stroke="black" d="M2280.44,-296.63C2189.56,-284.18 2018.48,-260.74 1915.49,-246.63"/>
<polygon fill="black" stroke="black" points="1915.82,-243.14 1905.43,-245.25 1914.87,-250.08 1915.82,-243.14"/>
</g>
<!-- [root] provider[&quot;registry.terraform.io/hashicorp/tls&quot;] -->
<g id="node11" class="node">
<title>[root] provider[&quot;registry.terraform.io/hashicorp/tls&quot;]</title>
<polygon fill="none" stroke="black" points="1830.57,-180 1514.19,-162 1830.57,-144 2146.95,-162 1830.57,-180"/>
<text text-anchor="middle" x="1830.57" y="-158.3" font-family="Times,serif" font-size="14.00">provider[&quot;registry.terraform.io/hashicorp/tls&quot;]</text>
</g>
<!-- [root] tls_private_key.rsa (expand)&#45;&gt;[root] provider[&quot;registry.terraform.io/hashicorp/tls&quot;] -->
<g id="edge29" class="edge">
<title>[root] tls_private_key.rsa (expand)&#45;&gt;[root] provider[&quot;registry.terraform.io/hashicorp/tls&quot;]</title>
<path fill="none" stroke="black" d="M1830.57,-215.7C1830.57,-207.98 1830.57,-198.71 1830.57,-190.11"/>
<polygon fill="black" stroke="black" points="1834.07,-190.1 1830.57,-180.1 1827.07,-190.1 1834.07,-190.1"/>
</g>
<!-- [root] output.aws_instance_http_server_details (expand) -->
<g id="node14" class="node">
<title>[root] output.aws_instance_http_server_details (expand)</title>
<ellipse fill="none" stroke="black" cx="895.57" cy="-306" rx="271.85" ry="18"/>
<text text-anchor="middle" x="895.57" y="-302.3" font-family="Times,serif" font-size="14.00">[root] output.aws_instance_http_server_details (expand)</text>
</g>
<!-- [root] output.aws_instance_http_server_details (expand)&#45;&gt;[root] aws_instance.http_servers (expand) -->
<g id="edge14" class="edge">
<title>[root] output.aws_instance_http_server_details (expand)&#45;&gt;[root] aws_instance.http_servers (expand)</title>
<path fill="none" stroke="black" d="M895.57,-287.7C895.57,-279.98 895.57,-270.71 895.57,-262.11"/>
<polygon fill="black" stroke="black" points="899.07,-262.1 895.57,-252.1 892.07,-262.1 899.07,-262.1"/>
</g>
<!-- [root] output.aws_security_group_http_server_details (expand) -->
<g id="node15" class="node">
<title>[root] output.aws_security_group_http_server_details (expand)</title>
<ellipse fill="none" stroke="black" cx="301.57" cy="-234" rx="301.65" ry="18"/>
<text text-anchor="middle" x="301.57" y="-230.3" font-family="Times,serif" font-size="14.00">[root] output.aws_security_group_http_server_details (expand)</text>
</g>
<!-- [root] output.aws_security_group_http_server_details (expand)&#45;&gt;[root] aws_security_group.elb_sg (expand) -->
<g id="edge15" class="edge">
<title>[root] output.aws_security_group_http_server_details (expand)&#45;&gt;[root] aws_security_group.elb_sg (expand)</title>
<path fill="none" stroke="black" d="M363.28,-216.32C400.66,-206.22 448.54,-193.28 487.76,-182.68"/>
<polygon fill="black" stroke="black" points="488.8,-186.02 497.54,-180.04 486.97,-179.27 488.8,-186.02"/>
</g>
<!-- [root] output.elb_public_dns (expand) -->
<g id="node16" class="node">
<title>[root] output.elb_public_dns (expand)</title>
<ellipse fill="none" stroke="black" cx="740.57" cy="-378" rx="184.67" ry="18"/>
<text text-anchor="middle" x="740.57" y="-374.3" font-family="Times,serif" font-size="14.00">[root] output.elb_public_dns (expand)</text>
</g>
<!-- [root] output.elb_public_dns (expand)&#45;&gt;[root] aws_elb.elb (expand) -->
<g id="edge16" class="edge">
<title>[root] output.elb_public_dns (expand)&#45;&gt;[root] aws_elb.elb (expand)</title>
<path fill="none" stroke="black" d="M862.29,-364.46C964.83,-353.51 1104.62,-337.55 1175.14,-324.07"/>
<polygon fill="black" stroke="black" points="1175.91,-327.49 1185.03,-322.1 1174.54,-320.62 1175.91,-327.49"/>
</g>
<!-- [root] output.http_server_public_dns (expand) -->
<g id="node17" class="node">
<title>[root] output.http_server_public_dns (expand)</title>
<ellipse fill="none" stroke="black" cx="382.57" cy="-306" rx="223.66" ry="18"/>
<text text-anchor="middle" x="382.57" y="-302.3" font-family="Times,serif" font-size="14.00">[root] output.http_server_public_dns (expand)</text>
</g>
<!-- [root] output.http_server_public_dns (expand)&#45;&gt;[root] aws_instance.http_servers (expand) -->
<g id="edge17" class="edge">
<title>[root] output.http_server_public_dns (expand)&#45;&gt;[root] aws_instance.http_servers (expand)</title>
<path fill="none" stroke="black" d="M490.74,-290.24C576.28,-278.57 695.34,-262.32 782.2,-250.47"/>
<polygon fill="black" stroke="black" points="782.93,-253.9 792.37,-249.08 781.98,-246.97 782.93,-253.9"/>
</g>
<!-- [root] provider[&quot;registry.terraform.io/hashicorp/aws&quot;] (close) -->
<g id="node18" class="node">
<title>[root] provider[&quot;registry.terraform.io/hashicorp/aws&quot;] (close)</title>
<ellipse fill="none" stroke="black" cx="1234.57" cy="-378" rx="291.65" ry="18"/>
<text text-anchor="middle" x="1234.57" y="-374.3" font-family="Times,serif" font-size="14.00">[root] provider[&quot;registry.terraform.io/hashicorp/aws&quot;] (close)</text>
</g>
<!-- [root] provider[&quot;registry.terraform.io/hashicorp/aws&quot;] (close)&#45;&gt;[root] aws_elb.elb (expand) -->
<g id="edge18" class="edge">
<title>[root] provider[&quot;registry.terraform.io/hashicorp/aws&quot;] (close)&#45;&gt;[root] aws_elb.elb (expand)</title>
<path fill="none" stroke="black" d="M1234.57,-359.7C1234.57,-351.98 1234.57,-342.71 1234.57,-334.11"/>
<polygon fill="black" stroke="black" points="1238.07,-334.1 1234.57,-324.1 1231.07,-334.1 1238.07,-334.1"/>
</g>
<!-- [root] provider[&quot;registry.terraform.io/hashicorp/aws&quot;] (close)&#45;&gt;[root] aws_key_pair.tf&#45;key&#45;pair (expand) -->
<g id="edge19" class="edge">
<title>[root] provider[&quot;registry.terraform.io/hashicorp/aws&quot;] (close)&#45;&gt;[root] aws_key_pair.tf&#45;key&#45;pair (expand)</title>
<path fill="none" stroke="black" d="M1273.55,-360.05C1295.63,-350.45 1323.46,-338.35 1346.96,-328.14"/>
<polygon fill="black" stroke="black" points="1348.63,-331.23 1356.4,-324.03 1345.83,-324.81 1348.63,-331.23"/>
</g>
<!-- [root] provider[&quot;registry.terraform.io/hashicorp/local&quot;] (close) -->
<g id="node19" class="node">
<title>[root] provider[&quot;registry.terraform.io/hashicorp/local&quot;] (close)</title>
<ellipse fill="none" stroke="black" cx="2430.57" cy="-378" rx="295.95" ry="18"/>
<text text-anchor="middle" x="2430.57" y="-374.3" font-family="Times,serif" font-size="14.00">[root] provider[&quot;registry.terraform.io/hashicorp/local&quot;] (close)</text>
</g>
<!-- [root] provider[&quot;registry.terraform.io/hashicorp/local&quot;] (close)&#45;&gt;[root] local_file.tf&#45;key (expand) -->
<g id="edge20" class="edge">
<title>[root] provider[&quot;registry.terraform.io/hashicorp/local&quot;] (close)&#45;&gt;[root] local_file.tf&#45;key (expand)</title>
<path fill="none" stroke="black" d="M2408.57,-359.7C2397.36,-350.88 2383.57,-340.03 2371.42,-330.47"/>
<polygon fill="black" stroke="black" points="2373.34,-327.54 2363.32,-324.1 2369.02,-333.04 2373.34,-327.54"/>
</g>
<!-- [root] provider[&quot;registry.terraform.io/hashicorp/tls&quot;] (close) -->
<g id="node20" class="node">
<title>[root] provider[&quot;registry.terraform.io/hashicorp/tls&quot;] (close)</title>
<ellipse fill="none" stroke="black" cx="1830.57" cy="-378" rx="285.95" ry="18"/>
<text text-anchor="middle" x="1830.57" y="-374.3" font-family="Times,serif" font-size="14.00">[root] provider[&quot;registry.terraform.io/hashicorp/tls&quot;] (close)</text>
</g>
<!-- [root] provider[&quot;registry.terraform.io/hashicorp/tls&quot;] (close)&#45;&gt;[root] tls_private_key.rsa (expand) -->
<g id="edge21" class="edge">
<title>[root] provider[&quot;registry.terraform.io/hashicorp/tls&quot;] (close)&#45;&gt;[root] tls_private_key.rsa (expand)</title>
<path fill="none" stroke="black" d="M1830.57,-359.87C1830.57,-335.67 1830.57,-291.21 1830.57,-262.39"/>
<polygon fill="black" stroke="black" points="1834.07,-262.19 1830.57,-252.19 1827.07,-262.19 1834.07,-262.19"/>
</g>
<!-- [root] root -->
<g id="node21" class="node">
<title>[root] root</title>
<ellipse fill="none" stroke="black" cx="740.57" cy="-450" rx="58.49" ry="18"/>
<text text-anchor="middle" x="740.57" y="-446.3" font-family="Times,serif" font-size="14.00">[root] root</text>
</g>
<!-- [root] root&#45;&gt;[root] output.aws_instance_http_server_details (expand) -->
<g id="edge22" class="edge">
<title>[root] root&#45;&gt;[root] output.aws_instance_http_server_details (expand)</title>
<path fill="none" stroke="black" d="M686.14,-443.26C614.79,-433.64 503.46,-410.16 546.57,-360 564.71,-338.9 613.88,-326.1 669.8,-318.37"/>
<polygon fill="black" stroke="black" points="670.48,-321.81 679.94,-317.03 669.57,-314.87 670.48,-321.81"/>
</g>
<!-- [root] root&#45;&gt;[root] output.aws_security_group_http_server_details (expand) -->
<g id="edge23" class="edge">
<title>[root] root&#45;&gt;[root] output.aws_security_group_http_server_details (expand)</title>
<path fill="none" stroke="black" d="M683.59,-445.86C548.63,-437.09 215.84,-407.3 149.57,-324 123.93,-291.76 167.37,-268.81 214.28,-254.29"/>
<polygon fill="black" stroke="black" points="215.41,-257.61 224.01,-251.41 213.43,-250.9 215.41,-257.61"/>
</g>
<!-- [root] root&#45;&gt;[root] output.elb_public_dns (expand) -->
<g id="edge24" class="edge">
<title>[root] root&#45;&gt;[root] output.elb_public_dns (expand)</title>
<path fill="none" stroke="black" d="M740.57,-431.7C740.57,-423.98 740.57,-414.71 740.57,-406.11"/>
<polygon fill="black" stroke="black" points="744.07,-406.1 740.57,-396.1 737.07,-406.1 744.07,-406.1"/>
</g>
<!-- [root] root&#45;&gt;[root] output.http_server_public_dns (expand) -->
<g id="edge25" class="edge">
<title>[root] root&#45;&gt;[root] output.http_server_public_dns (expand)</title>
<path fill="none" stroke="black" d="M690.8,-440.36C648.06,-431.98 585.35,-417.38 533.57,-396 490.31,-378.13 444.52,-349.61 414.86,-329.68"/>
<polygon fill="black" stroke="black" points="416.81,-326.77 406.57,-324.05 412.88,-332.56 416.81,-326.77"/>
</g>
<!-- [root] root&#45;&gt;[root] provider[&quot;registry.terraform.io/hashicorp/aws&quot;] (close) -->
<g id="edge26" class="edge">
<title>[root] root&#45;&gt;[root] provider[&quot;registry.terraform.io/hashicorp/aws&quot;] (close)</title>
<path fill="none" stroke="black" d="M792.51,-441.64C868.14,-430.92 1010.78,-410.71 1113.61,-396.14"/>
<polygon fill="black" stroke="black" points="1114.34,-399.57 1123.75,-394.7 1113.36,-392.64 1114.34,-399.57"/>
</g>
<!-- [root] root&#45;&gt;[root] provider[&quot;registry.terraform.io/hashicorp/local&quot;] (close) -->
<g id="edge27" class="edge">
<title>[root] root&#45;&gt;[root] provider[&quot;registry.terraform.io/hashicorp/local&quot;] (close)</title>
<path fill="none" stroke="black" d="M798.64,-447.14C988.97,-440.97 1611.2,-420.18 2125.57,-396 2154.37,-394.65 2184.69,-393.1 2214.58,-391.51"/>
<polygon fill="black" stroke="black" points="2214.9,-395 2224.7,-390.96 2214.53,-388.01 2214.9,-395"/>
</g>
<!-- [root] root&#45;&gt;[root] provider[&quot;registry.terraform.io/hashicorp/tls&quot;] (close) -->
<g id="edge28" class="edge">
<title>[root] root&#45;&gt;[root] provider[&quot;registry.terraform.io/hashicorp/tls&quot;] (close)</title>
<path fill="none" stroke="black" d="M797.26,-445.36C949.54,-435.58 1373.19,-408.37 1628.28,-391.99"/>
<polygon fill="black" stroke="black" points="1628.65,-395.47 1638.41,-391.34 1628.21,-388.49 1628.65,-395.47"/>
</g>
</g>
</svg>
