<?xml version="1.0" encoding="UTF-8" standalone="no"?>
<!DOCTYPE svg PUBLIC "-//W3C//DTD SVG 1.1//EN"
 "http://www.w3.org/Graphics/SVG/1.1/DTD/svg11.dtd">
<!-- Generated by graphviz version 2.43.0 (0)
 -->
<!-- Title: %3 Pages: 1 -->
<svg width="2212pt" height="404pt"
 viewBox="0.00 0.00 2212.40 404.00" xmlns="http://www.w3.org/2000/svg" xmlns:xlink="http://www.w3.org/1999/xlink">
<g id="graph0" class="graph" transform="scale(1 1) rotate(0) translate(4 400)">
<title>%3</title>
<polygon fill="white" stroke="transparent" points="-4,4 -4,-400 2208.4,-400 2208.4,4 -4,4"/>
<!-- [root] aws_default_vpc.default (expand) -->
<g id="node1" class="node">
<title>[root] aws_default_vpc.default (expand)</title>
<polygon fill="none" stroke="black" points="949.57,-108 761.57,-108 761.57,-72 949.57,-72 949.57,-108"/>
<text text-anchor="middle" x="855.57" y="-86.3" font-family="Times,serif" font-size="14.00">aws_default_vpc.default</text>
</g>
<!-- [root] provider[&quot;registry.terraform.io/hashicorp/aws&quot;] -->
<g id="node7" class="node">
<title>[root] provider[&quot;registry.terraform.io/hashicorp/aws&quot;]</title>
<polygon fill="none" stroke="black" points="1093.57,-36 768.31,-18 1093.57,0 1418.84,-18 1093.57,-36"/>
<text text-anchor="middle" x="1093.57" y="-14.3" font-family="Times,serif" font-size="14.00">provider[&quot;registry.terraform.io/hashicorp/aws&quot;]</text>
</g>
<!-- [root] aws_default_vpc.default (expand)&#45;&gt;[root] provider[&quot;registry.terraform.io/hashicorp/aws&quot;] -->
<g id="edge1" class="edge">
<title>[root] aws_default_vpc.default (expand)&#45;&gt;[root] provider[&quot;registry.terraform.io/hashicorp/aws&quot;]</title>
<path fill="none" stroke="black" d="M913.49,-71.97C950.37,-61.12 997.99,-47.11 1035,-36.23"/>
<polygon fill="black" stroke="black" points="1036.05,-39.57 1044.65,-33.39 1034.07,-32.85 1036.05,-39.57"/>
</g>
<!-- [root] aws_instance.http_server (expand) -->
<g id="node2" class="node">
<title>[root] aws_instance.http_server (expand)</title>
<polygon fill="none" stroke="black" points="1074.57,-252 876.57,-252 876.57,-216 1074.57,-216 1074.57,-252"/>
<text text-anchor="middle" x="975.57" y="-230.3" font-family="Times,serif" font-size="14.00">aws_instance.http_server</text>
</g>
<!-- [root] aws_security_group.http_server_sg (expand) -->
<g id="node3" class="node">
<title>[root] aws_security_group.http_server_sg (expand)</title>
<polygon fill="none" stroke="black" points="746.57,-180 478.57,-180 478.57,-144 746.57,-144 746.57,-180"/>
<text text-anchor="middle" x="612.57" y="-158.3" font-family="Times,serif" font-size="14.00">aws_security_group.http_server_sg</text>
</g>
<!-- [root] aws_instance.http_server (expand)&#45;&gt;[root] aws_security_group.http_server_sg (expand) -->
<g id="edge2" class="edge">
<title>[root] aws_instance.http_server (expand)&#45;&gt;[root] aws_security_group.http_server_sg (expand)</title>
<path fill="none" stroke="black" d="M887.24,-215.97C833.99,-205.7 766.07,-192.6 711.1,-182"/>
<polygon fill="black" stroke="black" points="711.47,-178.51 700.99,-180.05 710.15,-185.38 711.47,-178.51"/>
</g>
<!-- [root] data.aws_ami.aws_linux_2_latest (expand) -->
<g id="node4" class="node">
<title>[root] data.aws_ami.aws_linux_2_latest (expand)</title>
<polygon fill="none" stroke="black" points="1219.07,-108 968.07,-108 968.07,-72 1219.07,-72 1219.07,-108"/>
<text text-anchor="middle" x="1093.57" y="-86.3" font-family="Times,serif" font-size="14.00">data.aws_ami.aws_linux_2_latest</text>
</g>
<!-- [root] aws_instance.http_server (expand)&#45;&gt;[root] data.aws_ami.aws_linux_2_latest (expand) -->
<g id="edge3" class="edge">
<title>[root] aws_instance.http_server (expand)&#45;&gt;[root] data.aws_ami.aws_linux_2_latest (expand)</title>
<path fill="none" stroke="black" d="M997.27,-215.8C1009,-205.97 1023.33,-193.03 1034.57,-180 1051.57,-160.31 1067.66,-135.47 1078.73,-117.04"/>
<polygon fill="black" stroke="black" points="1081.82,-118.7 1083.89,-108.31 1075.79,-115.13 1081.82,-118.7"/>
</g>
<!-- [root] data.aws_subnets.default_subnets (expand) -->
<g id="node6" class="node">
<title>[root] data.aws_subnets.default_subnets (expand)</title>
<polygon fill="none" stroke="black" points="1026.07,-180 765.07,-180 765.07,-144 1026.07,-144 1026.07,-180"/>
<text text-anchor="middle" x="895.57" y="-158.3" font-family="Times,serif" font-size="14.00">data.aws_subnets.default_subnets</text>
</g>
<!-- [root] aws_instance.http_server (expand)&#45;&gt;[root] data.aws_subnets.default_subnets (expand) -->
<g id="edge4" class="edge">
<title>[root] aws_instance.http_server (expand)&#45;&gt;[root] data.aws_subnets.default_subnets (expand)</title>
<path fill="none" stroke="black" d="M955.8,-215.7C945.82,-206.97 933.56,-196.24 922.72,-186.75"/>
<polygon fill="black" stroke="black" points="924.95,-184.06 915.12,-180.1 920.34,-189.32 924.95,-184.06"/>
</g>
<!-- [root] var.aws_key_pair -->
<g id="node8" class="node">
<title>[root] var.aws_key_pair</title>
<polygon fill="none" stroke="black" points="1214.07,-180 1083.07,-180 1083.07,-144 1220.07,-144 1220.07,-174 1214.07,-180"/>
<polyline fill="none" stroke="black" points="1214.07,-180 1214.07,-174 "/>
<polyline fill="none" stroke="black" points="1220.07,-174 1214.07,-174 "/>
<text text-anchor="middle" x="1151.57" y="-158.3" font-family="Times,serif" font-size="14.00">var.aws_key_pair</text>
</g>
<!-- [root] aws_instance.http_server (expand)&#45;&gt;[root] var.aws_key_pair -->
<g id="edge5" class="edge">
<title>[root] aws_instance.http_server (expand)&#45;&gt;[root] var.aws_key_pair</title>
<path fill="none" stroke="black" d="M1018.63,-215.88C1042.9,-206.22 1073.41,-194.09 1099.08,-183.88"/>
<polygon fill="black" stroke="black" points="1100.66,-187.02 1108.66,-180.07 1098.07,-180.51 1100.66,-187.02"/>
</g>
<!-- [root] aws_security_group.http_server_sg (expand)&#45;&gt;[root] aws_default_vpc.default (expand) -->
<g id="edge6" class="edge">
<title>[root] aws_security_group.http_server_sg (expand)&#45;&gt;[root] aws_default_vpc.default (expand)</title>
<path fill="none" stroke="black" d="M671.71,-143.97C706.25,-134.01 750.02,-121.41 786.19,-110.99"/>
<polygon fill="black" stroke="black" points="787.53,-114.24 796.17,-108.11 785.6,-107.52 787.53,-114.24"/>
</g>
<!-- [root] data.aws_ami.aws_linux_2_latest (expand)&#45;&gt;[root] provider[&quot;registry.terraform.io/hashicorp/aws&quot;] -->
<g id="edge7" class="edge">
<title>[root] data.aws_ami.aws_linux_2_latest (expand)&#45;&gt;[root] provider[&quot;registry.terraform.io/hashicorp/aws&quot;]</title>
<path fill="none" stroke="black" d="M1093.57,-71.7C1093.57,-63.98 1093.57,-54.71 1093.57,-46.11"/>
<polygon fill="black" stroke="black" points="1097.07,-46.1 1093.57,-36.1 1090.07,-46.1 1097.07,-46.1"/>
</g>
<!-- [root] data.aws_ami_ids.aws_linux_2_latest_ids (expand) -->
<g id="node5" class="node">
<title>[root] data.aws_ami_ids.aws_linux_2_latest_ids (expand)</title>
<polygon fill="none" stroke="black" points="1675.57,-108 1369.57,-108 1369.57,-72 1675.57,-72 1675.57,-108"/>
<text text-anchor="middle" x="1522.57" y="-86.3" font-family="Times,serif" font-size="14.00">data.aws_ami_ids.aws_linux_2_latest_ids</text>
</g>
<!-- [root] data.aws_ami_ids.aws_linux_2_latest_ids (expand)&#45;&gt;[root] provider[&quot;registry.terraform.io/hashicorp/aws&quot;] -->
<g id="edge8" class="edge">
<title>[root] data.aws_ami_ids.aws_linux_2_latest_ids (expand)&#45;&gt;[root] provider[&quot;registry.terraform.io/hashicorp/aws&quot;]</title>
<path fill="none" stroke="black" d="M1418.18,-71.97C1345.6,-60.12 1249.96,-44.52 1181.32,-33.32"/>
<polygon fill="black" stroke="black" points="1181.83,-29.85 1171.4,-31.7 1180.7,-36.76 1181.83,-29.85"/>
</g>
<!-- [root] data.aws_subnets.default_subnets (expand)&#45;&gt;[root] aws_default_vpc.default (expand) -->
<g id="edge9" class="edge">
<title>[root] data.aws_subnets.default_subnets (expand)&#45;&gt;[root] aws_default_vpc.default (expand)</title>
<path fill="none" stroke="black" d="M885.69,-143.7C881.08,-135.64 875.51,-125.89 870.42,-116.98"/>
<polygon fill="black" stroke="black" points="873.35,-115.05 865.35,-108.1 867.27,-118.52 873.35,-115.05"/>
</g>
<!-- [root] output.aws_instance_http_server_details (expand) -->
<g id="node9" class="node">
<title>[root] output.aws_instance_http_server_details (expand)</title>
<ellipse fill="none" stroke="black" cx="416.57" cy="-306" rx="271.85" ry="18"/>
<text text-anchor="middle" x="416.57" y="-302.3" font-family="Times,serif" font-size="14.00">[root] output.aws_instance_http_server_details (expand)</text>
</g>
<!-- [root] output.aws_instance_http_server_details (expand)&#45;&gt;[root] aws_instance.http_server (expand) -->
<g id="edge10" class="edge">
<title>[root] output.aws_instance_http_server_details (expand)&#45;&gt;[root] aws_instance.http_server (expand)</title>
<path fill="none" stroke="black" d="M537.52,-289.85C635.25,-277.62 771.61,-260.54 866.13,-248.71"/>
<polygon fill="black" stroke="black" points="866.8,-252.15 876.29,-247.43 865.93,-245.2 866.8,-252.15"/>
</g>
<!-- [root] output.aws_security_group_http_server_details (expand) -->
<g id="node10" class="node">
<title>[root] output.aws_security_group_http_server_details (expand)</title>
<ellipse fill="none" stroke="black" cx="301.57" cy="-234" rx="301.65" ry="18"/>
<text text-anchor="middle" x="301.57" y="-230.3" font-family="Times,serif" font-size="14.00">[root] output.aws_security_group_http_server_details (expand)</text>
</g>
<!-- [root] output.aws_security_group_http_server_details (expand)&#45;&gt;[root] aws_security_group.http_server_sg (expand) -->
<g id="edge11" class="edge">
<title>[root] output.aws_security_group_http_server_details (expand)&#45;&gt;[root] aws_security_group.http_server_sg (expand)</title>
<path fill="none" stroke="black" d="M374.88,-216.5C420.4,-206.25 479.1,-193.04 526.78,-182.31"/>
<polygon fill="black" stroke="black" points="527.79,-185.67 536.78,-180.06 526.26,-178.84 527.79,-185.67"/>
</g>
<!-- [root] output.http_server_public_dns (expand) -->
<g id="node11" class="node">
<title>[root] output.http_server_public_dns (expand)</title>
<ellipse fill="none" stroke="black" cx="929.57" cy="-306" rx="223.66" ry="18"/>
<text text-anchor="middle" x="929.57" y="-302.3" font-family="Times,serif" font-size="14.00">[root] output.http_server_public_dns (expand)</text>
</g>
<!-- [root] output.http_server_public_dns (expand)&#45;&gt;[root] aws_instance.http_server (expand) -->
<g id="edge12" class="edge">
<title>[root] output.http_server_public_dns (expand)&#45;&gt;[root] aws_instance.http_server (expand)</title>
<path fill="none" stroke="black" d="M940.94,-287.7C946.29,-279.56 952.78,-269.69 958.68,-260.7"/>
<polygon fill="black" stroke="black" points="961.77,-262.38 964.33,-252.1 955.92,-258.54 961.77,-262.38"/>
</g>
<!-- [root] output.http_server_public_ip (expand) -->
<g id="node12" class="node">
<title>[root] output.http_server_public_ip (expand)</title>
<ellipse fill="none" stroke="black" cx="1386.57" cy="-306" rx="215.56" ry="18"/>
<text text-anchor="middle" x="1386.57" y="-302.3" font-family="Times,serif" font-size="14.00">[root] output.http_server_public_ip (expand)</text>
</g>
<!-- [root] output.http_server_public_ip (expand)&#45;&gt;[root] aws_instance.http_server (expand) -->
<g id="edge13" class="edge">
<title>[root] output.http_server_public_ip (expand)&#45;&gt;[root] aws_instance.http_server (expand)</title>
<path fill="none" stroke="black" d="M1296.38,-289.64C1234.12,-279.03 1150.98,-264.88 1084.95,-253.63"/>
<polygon fill="black" stroke="black" points="1085.36,-250.15 1074.92,-251.92 1084.19,-257.05 1085.36,-250.15"/>
</g>
<!-- [root] provider[&quot;registry.terraform.io/hashicorp/aws&quot;] (close) -->
<g id="node13" class="node">
<title>[root] provider[&quot;registry.terraform.io/hashicorp/aws&quot;] (close)</title>
<ellipse fill="none" stroke="black" cx="1912.57" cy="-306" rx="291.65" ry="18"/>
<text text-anchor="middle" x="1912.57" y="-302.3" font-family="Times,serif" font-size="14.00">[root] provider[&quot;registry.terraform.io/hashicorp/aws&quot;] (close)</text>
</g>
<!-- [root] provider[&quot;registry.terraform.io/hashicorp/aws&quot;] (close)&#45;&gt;[root] aws_instance.http_server (expand) -->
<g id="edge14" class="edge">
<title>[root] provider[&quot;registry.terraform.io/hashicorp/aws&quot;] (close)&#45;&gt;[root] aws_instance.http_server (expand)</title>
<path fill="none" stroke="black" d="M1734.68,-291.71C1543.16,-277.4 1244.57,-255.1 1084.94,-243.17"/>
<polygon fill="black" stroke="black" points="1084.86,-239.65 1074.63,-242.4 1084.34,-246.64 1084.86,-239.65"/>
</g>
<!-- [root] provider[&quot;registry.terraform.io/hashicorp/aws&quot;] (close)&#45;&gt;[root] data.aws_ami_ids.aws_linux_2_latest_ids (expand) -->
<g id="edge15" class="edge">
<title>[root] provider[&quot;registry.terraform.io/hashicorp/aws&quot;] (close)&#45;&gt;[root] data.aws_ami_ids.aws_linux_2_latest_ids (expand)</title>
<path fill="none" stroke="black" d="M1881.64,-288.03C1811.62,-249.6 1640.96,-155.96 1562.83,-113.09"/>
<polygon fill="black" stroke="black" points="1564.23,-109.86 1553.78,-108.12 1560.86,-116 1564.23,-109.86"/>
</g>
<!-- [root] root -->
<g id="node14" class="node">
<title>[root] root</title>
<ellipse fill="none" stroke="black" cx="929.57" cy="-378" rx="58.49" ry="18"/>
<text text-anchor="middle" x="929.57" y="-374.3" font-family="Times,serif" font-size="14.00">[root] root</text>
</g>
<!-- [root] root&#45;&gt;[root] output.aws_instance_http_server_details (expand) -->
<g id="edge16" class="edge">
<title>[root] root&#45;&gt;[root] output.aws_instance_http_server_details (expand)</title>
<path fill="none" stroke="black" d="M877.08,-369.84C798.21,-359.08 646.92,-338.43 539.28,-323.74"/>
<polygon fill="black" stroke="black" points="539.71,-320.27 529.33,-322.39 538.77,-327.21 539.71,-320.27"/>
</g>
<!-- [root] root&#45;&gt;[root] output.aws_security_group_http_server_details (expand) -->
<g id="edge17" class="edge">
<title>[root] root&#45;&gt;[root] output.aws_security_group_http_server_details (expand)</title>
<path fill="none" stroke="black" d="M871.08,-377.58C696.08,-378.72 185.54,-377.41 135.57,-324 105.18,-291.52 153.96,-268.42 206.36,-253.91"/>
<polygon fill="black" stroke="black" points="207.4,-257.26 216.16,-251.31 205.6,-250.49 207.4,-257.26"/>
</g>
<!-- [root] root&#45;&gt;[root] output.http_server_public_dns (expand) -->
<g id="edge18" class="edge">
<title>[root] root&#45;&gt;[root] output.http_server_public_dns (expand)</title>
<path fill="none" stroke="black" d="M929.57,-359.7C929.57,-351.98 929.57,-342.71 929.57,-334.11"/>
<polygon fill="black" stroke="black" points="933.07,-334.1 929.57,-324.1 926.07,-334.1 933.07,-334.1"/>
</g>
<!-- [root] root&#45;&gt;[root] output.http_server_public_ip (expand) -->
<g id="edge19" class="edge">
<title>[root] root&#45;&gt;[root] output.http_server_public_ip (expand)</title>
<path fill="none" stroke="black" d="M980.67,-369.17C1052.24,-358.21 1184.12,-338.01 1278.13,-323.61"/>
<polygon fill="black" stroke="black" points="1278.9,-327.03 1288.25,-322.06 1277.84,-320.11 1278.9,-327.03"/>
</g>
<!-- [root] root&#45;&gt;[root] provider[&quot;registry.terraform.io/hashicorp/aws&quot;] (close) -->
<g id="edge20" class="edge">
<title>[root] root&#45;&gt;[root] provider[&quot;registry.terraform.io/hashicorp/aws&quot;] (close)</title>
<path fill="none" stroke="black" d="M985.95,-372.99C1125.34,-363.06 1491.34,-337 1719.43,-320.75"/>
<polygon fill="black" stroke="black" points="1719.79,-324.24 1729.51,-320.04 1719.29,-317.26 1719.79,-324.24"/>
</g>
</g>
</svg>
